<?xml version="1.0" standalone="no"?><!DOCTYPE svg PUBLIC "-//W3C//DTD SVG 1.1//EN" "http://www.w3.org/Graphics/SVG/1.1/DTD/svg11.dtd"><svg t="1552306378676" class="icon" style="" viewBox="0 0 1024 1024" version="1.1" xmlns="http://www.w3.org/2000/svg" p-id="6136" xmlns:xlink="http://www.w3.org/1999/xlink" width="14" height="14"><defs><style type="text/css"></style></defs><path d="M834.048 541.504a21.333333 21.333333 0 0 0-4.629333-23.253333l-384-384A21.184 21.184 0 0 0 430.336 128V106.666667c0-58.816-47.850667-106.666667-106.666667-106.666667s-106.666667 47.850667-106.666666 106.666667v213.333333c0 3.605333 1.109333 6.826667 2.688 9.813333l-167.104 167.104A105.962667 105.962667 0 0 0 21.333333 572.352c0 28.48 11.093333 55.253333 31.253334 75.413333l199.317333 199.317334a105.984 105.984 0 0 0 75.434667 31.232c28.48 0 55.274667-11.093333 75.413333-31.232L695.168 554.666667h119.168c8.618667 0 16.405333-5.205333 19.712-13.162667zM259.669333 106.666667c0-35.285333 28.714667-64 64-64s64 28.714667 64 64v55.168l-128 128V106.666667z m426.666667 405.333333a21.333333 21.333333 0 0 0-15.082667 6.250667l-298.666666 298.666666c-24.170667 24.192-66.368 24.149333-90.517334 0L82.752 617.6A63.573333 63.573333 0 0 1 64 572.352c0-17.109333 6.656-33.173333 18.752-45.269333l304.917333-304.917334V448a21.333333 21.333333 0 1 0 42.666667 0V179.498667L762.837333 512h-76.501333zM875.242667 650.261333c-7.701333-12.736-28.757333-12.736-36.458667 0-11.264 18.517333-109.781333 182.677333-109.781333 245.738667 0 70.592 57.408 128 128 128 70.570667 0 128-57.408 128.021333-128 0-63.061333-98.538667-227.221333-109.781333-245.738667zM857.002667 981.333333c-47.061333 0-85.333333-38.272-85.333334-85.333333 0-33.066667 46.762667-125.397333 85.333334-192.64 38.549333 67.242667 85.333333 159.573333 85.333333 192.64 0 47.061333-38.272 85.333333-85.333333 85.333333z" fill="#222" p-id="6137"></path></svg>