<?xml version="1.0" standalone="no"?><!DOCTYPE svg PUBLIC "-//W3C//DTD SVG 1.1//EN" "http://www.w3.org/Graphics/SVG/1.1/DTD/svg11.dtd"><svg t="1551754871152" class="icon" style="" viewBox="0 0 1026 1024" version="1.1" xmlns="http://www.w3.org/2000/svg" p-id="5325" xmlns:xlink="http://www.w3.org/1999/xlink" width="14" height="14"><defs><style type="text/css"></style></defs><path d="M811.984589 328.552129c-57.139501 0-101.497797 44.358297-101.497798 101.497798s44.358297 101.497797 101.497798 101.497797 101.497797-44.358297 101.497797-101.497797c0.751836-57.139501-44.358297-101.497797-101.497797-101.497798z m0 163.900147c-35.33627 0-62.402349-27.066079-62.40235-62.402349 0-35.33627 27.066079-62.402349 62.40235-62.40235 35.33627 0 62.402349 27.066079 62.402349 62.40235 0 35.33627-26.314244 62.402349-62.402349 62.402349zM211.267995 328.552129c-57.139501 0-101.497797 44.358297-101.497797 101.497798s44.358297 101.497797 101.497797 101.497797 101.497797-44.358297 101.497798-101.497797-44.358297-101.497797-101.497798-101.497798z m0 163.900147c-35.33627 0-62.402349-27.066079-62.402349-62.402349 0-35.33627 27.066079-62.402349 62.402349-62.40235 35.33627 0 62.402349 27.066079 62.40235 62.40235 0 35.33627-27.066079 62.402349-62.40235 62.402349zM750.334075 211.265786c0-57.139501-44.358297-101.497797-101.497798-101.497798s-101.497797 44.358297-101.497797 101.497798 44.358297 101.497797 101.497797 101.497797c56.387665 0 101.497797-44.358297 101.497798-101.497797z m-102.249633 62.402349c-35.33627 0-62.402349-27.066079-62.40235-62.402349 0-35.33627 27.066079-62.402349 62.40235-62.40235s62.402349 27.066079 62.402349 62.40235c0 35.33627-26.314244 62.402349-62.402349 62.402349zM375.168142 109.767988c-57.139501 0-101.497797 44.358297-101.497797 101.497798s44.358297 101.497797 101.497797 101.497797S476.665939 268.405286 476.665939 211.265786s-44.358297-101.497797-101.497797-101.497798z m0 163.900147c-35.33627 0-62.402349-27.066079-62.402349-62.402349 0-35.33627 27.066079-62.402349 62.402349-62.40235 35.33627 0 62.402349 27.066079 62.40235 62.40235 0 35.33627-27.066079 62.402349-62.40235 62.402349z" p-id="5326" fill="#707070"></path><path d="M272.166674 921.750367l62.402349 27.817915c54.883994 22.555066 115.030837 34.584435 177.433187 34.584435 35.33627 0 62.402349-27.066079 62.402349-62.40235 0-15.788546-6.014684-30.073421-15.788546-40.599119-18.044053-18.044053-27.817915-42.10279-27.817915-68.417034 0-57.139501 44.358297-101.497797 101.497797-101.497797h98.490456c139.84141 0 253.368576-113.527166 253.368575-253.368576 0-230.061674-212.017621-417.268722-472.152716-417.268722C251.115279 39.847283 39.849493 251.864905 39.849493 512c0 124.052863 43.606461 231.565345 121.797357 316.522761 3.759178 15.036711-3.007342 25.562408-16.540382 26.314243-9.022026 0.751836-18.795888-8.270191-18.795888-8.27019l-4.511014-3.759178c-4.511013-5.262849-8.270191-9.773862-12.781204-15.036711-67.665198-87.212922-109.016153-196.98091-109.016152-315.770925 0-281.938326 229.309838-511.248164 511.248164-511.248164s511.248164 205.251101 511.248165 457.116005c0 161.64464-131.571219 293.215859-293.215859 293.215859H632.295895c-35.33627 0-62.402349 27.066079-62.402349 62.40235 0 15.788546 6.014684 30.073421 15.788546 40.599119 18.044053 18.044053 27.817915 42.10279 27.817915 68.417034 0 57.139501-44.358297 101.497797-101.497797 101.497797-93.227606 0-180.440529-24.810573-255.624083-68.417034-0.751836-0.751836-17.292217-28.56975 15.788547-33.832599z" p-id="5327" fill="#222"></path></svg>