<?xml version="1.0" standalone="no"?><!DOCTYPE svg PUBLIC "-//W3C//DTD SVG 1.1//EN" "http://www.w3.org/Graphics/SVG/1.1/DTD/svg11.dtd"><svg t="1551756852655" class="icon" style="" viewBox="0 0 1024 1024" version="1.1" xmlns="http://www.w3.org/2000/svg" p-id="1984" xmlns:xlink="http://www.w3.org/1999/xlink" width="14" height="14"><defs><style type="text/css"></style></defs><path d="M469.312 570.24v-256h85.376v256h128L512 756.288 341.312 570.24h128zM1024 640.128C1024 782.912 919.872 896 787.648 896h-512C123.904 896 0 761.6 0 597.504 0 451.968 94.656 331.52 226.432 302.976 284.16 195.456 391.808 128 512 128c152.32 0 282.112 108.416 323.392 261.12C941.888 413.44 1024 519.04 1024 640.192z m-259.2-205.312c-24.448-129.024-128.896-222.72-252.8-222.72-97.28 0-183.04 57.344-224.64 147.456l-9.28 20.224-20.928 2.944c-103.36 14.4-178.368 104.32-178.368 214.72 0 117.952 88.832 214.4 196.928 214.4h512c88.32 0 157.504-75.136 157.504-171.712 0-88.064-65.92-164.928-144.96-171.776l-29.504-2.56-5.888-30.976z" fill="#222" p-id="1985"></path></svg>