<?xml version="1.0" standalone="no"?><!DOCTYPE svg PUBLIC "-//W3C//DTD SVG 1.1//EN" "http://www.w3.org/Graphics/SVG/1.1/DTD/svg11.dtd"><svg t="1551772572612" class="icon" style="" viewBox="0 0 1024 1024" version="1.1" xmlns="http://www.w3.org/2000/svg" p-id="20451" xmlns:xlink="http://www.w3.org/1999/xlink" width="14" height="14"><defs><style type="text/css"></style></defs><path d="M131 213h98v249.7h303.3V213h98v598.2h-98V546.5H229v264.8h-98V213z m673.8 327.1c25.7 0 46.9 7.4 63.7 22.3 16.4 14.9 24.6 33.9 24.6 57.7 0 23.1-8.9 43.9-26.1 62.9-10.4 11.2-29 25.3-55.1 42.8-27.2 17.9-43.6 33.5-49.5 46.9h131.1v38.4H708c0-27.2 8.6-50.6 26.4-70.7 9.7-11.2 30.2-27.6 61.1-48.8 17.1-11.9 29-22 36.5-29.8 11.5-13 17.5-27.2 17.5-42.1 0-14.5-4.1-25.3-11.5-32.4-7.8-7.1-19.4-10.4-34.6-10.4-16.4 0-28.7 5.6-36.9 16.8-8.2 10.4-12.7 26.4-13.4 47.3h-43.6c0.4-29.8 8.9-53.6 26.1-71.9 17.4-19.3 40.5-29 69.2-29z" p-id="20452" fill="#222"></path></svg>