<?xml version="1.0" standalone="no"?><!DOCTYPE svg PUBLIC "-//W3C//DTD SVG 1.1//EN" "http://www.w3.org/Graphics/SVG/1.1/DTD/svg11.dtd"><svg t="1551755156424" class="icon" style="" viewBox="0 0 1024 1024" version="1.1" xmlns="http://www.w3.org/2000/svg" p-id="2126" xmlns:xlink="http://www.w3.org/1999/xlink" width="16" height="16"><defs><style type="text/css"></style></defs><path d="M508.248559 953.897386c-60.0824 0-118.381178-11.772115-173.275415-34.991956-53.009308-22.420639-100.612489-54.513568-141.484361-95.385441-40.872896-40.872896-72.964802-88.475054-95.386464-141.485384-23.218818-54.894238-34.990932-113.193015-34.990933-173.275416s11.773138-118.381178 34.990933-173.275415c22.421662-53.009308 54.513568-100.612489 95.386464-141.484362 40.871873-40.872896 88.475054-72.964802 141.484361-95.386464 54.895261-23.218818 113.194038-34.990932 173.275415-34.990932 60.0824 0 118.380154 11.773138 173.275416 34.990932 53.009308 22.421662 100.611465 54.513568 141.484361 95.386464 40.871873 40.871873 72.964802 88.475054 95.385441 141.484362 23.218818 54.895261 34.991955 113.194038 34.991955 173.275415s-11.773138 118.381178-34.991955 173.275416c-22.420639 53.010331-54.513568 100.612489-95.385441 141.485384-40.872896 40.871873-88.475054 72.964802-141.484361 95.385441-54.895261 23.218818-113.193015 34.991955-173.275416 34.991956z m0-839.844794c-217.641879 0-394.706597 177.064718-394.706596 394.706597 0 217.642902 177.064718 394.706597 394.706596 394.706597s394.705574-177.063695 394.705574-394.706597c0.001023-217.641879-177.063695-394.706597-394.705574-394.706597z" fill="#707070" p-id="2127"></path><path d="M480.95289 643.183761c-0.229221-8.187473-0.340761-14.329357-0.340761-18.423604 0-24.107047 3.411703-44.919049 10.235109-62.436005 5.000897-13.18837 13.077853-26.495444 24.223704-39.918151 8.18952-9.776667 22.913872-24.053835 44.183292-42.818202 21.265326-18.765389 35.084053-33.717939 41.45311-44.864813 6.364965-11.141758 9.553587-23.311939 9.553587-36.506449 0-23.882943-9.329483-44.865837-27.976168-62.947657-18.654872-18.082844-41.513486-27.123754-68.576865-27.123754-26.1598 0-47.995107 8.188496-65.506946 24.564465-17.517979 16.375969-29.000498 41.964764-34.459836 76.765361l-63.11855-7.505951c5.682419-46.623877 22.571065-82.33624 50.665936-107.130949 28.088732-24.788569 65.218374-37.188994 111.394043-37.188994 48.901757 0 87.907119 13.30605 117.025297 39.918151 29.112038 26.612101 43.670615 58.800197 43.670615 96.554057 0 21.835308-5.117554 41.965787-15.352662 60.389392-10.235109 18.423605-30.253024 40.829917-60.048632 67.212797-20.017916 17.742083-33.093722 30.824029-39.234582 39.235607-6.142907 8.417717-10.694573 18.082844-13.647835 29.001521-2.958378 10.917654-4.66423 28.658713-5.117555 53.223178h-59.024301z m-3.753487 123.166158v-69.941956h69.942978v69.941956h-69.942978z" fill="#222" p-id="2128"></path></svg>