<?xml version="1.0" standalone="no"?><!DOCTYPE svg PUBLIC "-//W3C//DTD SVG 1.1//EN" "http://www.w3.org/Graphics/SVG/1.1/DTD/svg11.dtd"><svg t="1551755735131" class="icon" style="" viewBox="0 0 1024 1024" version="1.1" xmlns="http://www.w3.org/2000/svg" p-id="3120" xmlns:xlink="http://www.w3.org/1999/xlink" width="14" height="14"><defs><style type="text/css"></style></defs><path d="M372.224 445.610667a107.52 107.52 0 0 1 65.408 24.149333c3.882667 3.157333 7.893333 6.570667 10.965333 10.581333a32.042667 32.042667 0 0 1-44.245333 45.312 46.933333 46.933333 0 0 1-4.650667-4.096 44.202667 44.202667 0 0 0-15.573333-9.514666 44.330667 44.330667 0 0 0-32.896 1.578666 44.501333 44.501333 0 0 0-11.648 7.978667c-60.672 59.050667-122.026667 117.546667-179.584 179.626667a44.714667 44.714667 0 0 0-8.021333 12.757333c-4.522667 11.136-4.181333 23.978667 0.853333 34.858667 2.005333 4.309333 4.693333 8.192 7.936 11.648 36.010667 36.949333 71.637333 74.368 109.44 109.44a44.16 44.16 0 0 0 59.306667-0.768c60.586667-59.136 122.026667-117.589333 179.584-179.669334a44.16 44.16 0 0 0 1.450666-56.789333c-1.536-1.877333-3.242667-3.541333-4.864-5.376l-1.450666-1.834667a31.701333 31.701333 0 0 1-3.584-31.104 32.256 32.256 0 0 1 38.570666-18.304 33.792 33.792 0 0 1 12.16 6.741334c1.792 1.706667 3.498667 3.456 5.205334 5.290666 7.722667 8.789333 14.165333 18.474667 18.816 29.226667a108.501333 108.501333 0 0 1-1.066667 88.234667c-4.949333 10.666667-11.648 20.224-19.626667 28.842666a10068.224 10068.224 0 0 1-181.12 181.12 111.274667 111.274667 0 0 1-28.8 19.584 108.586667 108.586667 0 0 1-88.277333 1.109334 110.933333 110.933333 0 0 1-31.232-20.693334 6472.32 6472.32 0 0 1-110.890667-110.933333 110.336 110.336 0 0 1-20.693333-31.232 108.501333 108.501333 0 0 1 1.066667-88.234667 110.933333 110.933333 0 0 1 19.626666-28.842666 9930.325333 9930.325333 0 0 1 181.12-181.12c5.290667-4.949333 10.965333-9.429333 17.109334-13.269334a109.354667 109.354667 0 0 1 54.442666-16.298666h5.162667zM727.125333 78.976c19.285333 0.682667 38.016 6.016 54.442667 16.256 6.186667 3.84 11.818667 8.362667 17.152 13.312 37.418667 36.522667 74.410667 73.472 110.933333 110.890667 8.533333 9.258667 15.658667 19.626667 20.693334 31.232a108.8 108.8 0 0 1-1.109334 88.277333 113.066667 113.066667 0 0 1-19.584 28.8 10070.613333 10070.613333 0 0 1-181.162666 181.12c-9.216 8.576-19.626667 15.658667-31.189334 20.693333a108.757333 108.757333 0 0 1-90.666666-2.218666 110.08 110.08 0 0 1-28.117334-20.138667l-1.621333-1.664a32.042667 32.042667 0 0 1 47.402667-43.050667 44.202667 44.202667 0 0 0 15.573333 9.514667c10.666667 3.712 22.656 3.157333 32.896-1.578667 4.309333-2.005333 8.192-4.736 11.648-7.936 60.672-59.093333 122.069333-117.504 179.584-179.669333a43.648 43.648 0 0 0-0.768-59.264c-36.010667-36.949333-71.594667-74.325333-109.44-109.397333a44.245333 44.245333 0 0 0-46.677333-7.637334 45.653333 45.653333 0 0 0-12.629334 8.405334c-60.629333 59.093333-122.069333 117.504-179.584 179.626666a44.245333 44.245333 0 0 0-1.450666 56.789334c1.536 1.877333 3.242667 3.541333 4.864 5.333333l1.450666 1.834667a31.701333 31.701333 0 0 1 2.645334 33.237333 32.213333 32.213333 0 0 1-37.589334 16.256 34.261333 34.261333 0 0 1-12.202666-6.741333 112.512 112.512 0 0 1-22.954667-32.128 108.501333 108.501333 0 0 1-1.066667-88.234667c5.034667-11.605333 12.117333-22.016 20.693334-31.274667a10068.224 10068.224 0 0 1 181.12-181.12c5.333333-4.906667 10.965333-9.429333 17.152-13.269333 16.384-10.24 35.157333-15.573333 54.4-16.256h5.162666z" p-id="3121" fill="#707070"></path><path d="M705.152 304.085333a21.461333 21.461333 0 0 1 19.584 25.344c-0.682667 3.626667-4.608 9.685333-4.608 9.685334l-403.84 403.925333s-9.002667 6.144-14.634667 6.229333a21.504 21.504 0 0 1-21.376-25.344 38.144 38.144 0 0 1 4.608-9.728l403.84-403.925333s1.450667-1.408 2.773334-2.304a22.016 22.016 0 0 1 10.026666-3.797333c1.834667-0.128 1.792-0.128 3.626667-0.085334z" p-id="3122" fill="#222"></path></svg>