<?xml version="1.0" standalone="no"?><!DOCTYPE svg PUBLIC "-//W3C//DTD SVG 1.1//EN" "http://www.w3.org/Graphics/SVG/1.1/DTD/svg11.dtd"><svg t="1553064056061" class="icon" style="" viewBox="0 0 1024 1024" version="1.1" xmlns="http://www.w3.org/2000/svg" p-id="2545" xmlns:xlink="http://www.w3.org/1999/xlink" width="14" height="14"><defs><style type="text/css"></style></defs><path d="M892.8 163.4H322.6c-35.1 0-63.9 28.8-63.9 63.9 0 35.1 28.8 63.9 63.9 63.9h570.2c35.1 0 63.9-28.8 63.9-63.9 0-35.1-28.8-63.9-63.9-63.9zM892.8 448.4H322.6c-35.1 0-63.9 28.8-63.9 63.9 0 35.1 28.8 63.9 63.9 63.9h570.2c35.1 0 63.9-28.8 63.9-63.9 0-35.1-28.8-63.9-63.9-63.9zM892.8 735.9H322.6c-35.1 0-63.9 28.8-63.9 63.9 0 35.1 28.8 63.9 63.9 63.9h570.2c35.1 0 63.9-28.8 63.9-63.9 0-35.1-28.8-63.9-63.9-63.9zM130.1 164.4c-34.7 0-63 28.4-63 63v1.8c0 34.7 28.4 63 63 63 34.7 0 63-28.4 63-63v-1.8c0-34.6-28.3-63-63-63zM130.1 449.4c-34.7 0-63 28.4-63 63v1.8c0 34.7 28.4 63 63 63 34.7 0 63-28.4 63-63v-1.8c0-34.6-28.3-63-63-63zM130.1 736.9c-34.7 0-63 28.4-63 63v1.8c0 34.7 28.4 63 63 63 34.7 0 63-28.4 63-63v-1.8c0-34.6-28.3-63-63-63z" fill="#222" p-id="2546"></path></svg>