<?xml version="1.0" standalone="no"?><!DOCTYPE svg PUBLIC "-//W3C//DTD SVG 1.1//EN" "http://www.w3.org/Graphics/SVG/1.1/DTD/svg11.dtd"><svg t="1551755226364" class="icon" style="" viewBox="0 0 1024 1024" version="1.1" xmlns="http://www.w3.org/2000/svg" p-id="1132" xmlns:xlink="http://www.w3.org/1999/xlink" width="12" height="12"><defs><style type="text/css"></style></defs><path d="M128 0C57.312 0 0 57.312 0 128L0 896C0 966.688 57.312 1024 128 1024L896 1024C966.688 1024 1024 966.688 1024 896L1024 128C1024 57.312 966.688 0 896 0L128 0ZM256 128C326.688 128 384 185.312 384 256 384 326.688 326.688 384 256 384 185.312 384 128 326.688 128 256 128 185.312 185.312 128 256 128L256 128ZM256 320C291.328 320 320 291.328 320 256 320 220.672 291.328 192 256 192 220.672 192 192 220.672 192 256 192 291.328 220.672 320 256 320L256 320ZM64 896 64 865.952 270.419401 681.070886C296.829988 657.416038 338.369531 658.367526 363.662431 683.657914L640.032 960 128 960C92.672 960 64 931.328 64 896ZM896 960 730.624 960 494.848 721.12 722.894502 493.073498C747.805581 468.162419 788.547366 468.515363 813.501318 493.46932L960 639.968 960 896C960 931.328 931.328 960 896 960ZM64 788.179686 64 128.266116C64 92.77292 92.796721 64 128.43811 64L895.561888 64C931.150074 64 960 93.096369 960 127.865908L960 552.523437 811.848781 416.972771C785.716032 393.062661 744.183085 393.84742 718.771238 419.033927L454.40625 681.054688 366.772947 605.598692C340.090961 582.624369 296.765741 583.113434 270.598781 606.166484L64 788.179686Z" p-id="1133" fill="#222"></path></svg>